<svg width="44" height="44" viewBox="0 0 44 44" fill="none" xmlns="http://www.w3.org/2000/svg"><rect x=".75" y=".75" width="42.5" height="42.5" rx="21.25" fill="#F5F5F7"/><rect x="6" y="6" width="32" height="32" rx="16" fill="#2962EF"/><path fill-rule="evenodd" clip-rule="evenodd" d="M24.018 21.628c-2.738-1.48-6.07-3.4-8.578-4.963-.74-.534-.365-1.665.53-1.665h12.408c.693 0 1.156.772.809 1.356-.834 1.44-2.051 3.268-3.068 4.718-.546.778-1.436.912-2.1.554Zm-3.994.48c2.648 1.412 6.359 3.558 8.996 5.181.814.503.49 1.71-.462 1.71h-6.604l-6.48.001c-.76 0-1.15-.79-.827-1.34 1.092-1.86 2.319-3.738 3.339-5.14.453-.625 1.376-.765 2.038-.412Z" fill="#fff"/><rect x=".75" y=".75" width="42.5" height="42.5" rx="21.25" stroke="#fff" stroke-width="1.5"/></svg>